# xmcd
#
# Track frame offsets:
# 150
# 18447
# 48442
# 78262
# 98850
# 116210
# 137372
# 158105
# 182905
# 206477
# 233227
# 259680
#
# Disc length: 4174 seconds
#
#
# Revision: 0
# Processed by: cddbd v1.5.1PL0 Copyright (c) Steve Scherf et al.
# Submitted via: FreeRIP 2.80 
#
DISCID=9a104c0c
DTITLE=Osiris Trio - Folk Music [Dvorak - Martin - Ives] cd1
DYEAR=1998
DGENRE=Classical
TTITLE0=Dvorak-Lento maestro # Allegro # Lento # Allegro molto
TTITLE1=Dvorak-Poco adagio
TTITLE2=Dvorak-Adante
TTITLE3=Dvorak-Andante moderato
TTITLE4=Dvorak-Allegro
TTITLE5=Dvorak-Lento maestoso # Vivace # Lento-Vivace
TTITLE6=Martin-Allegro
TTITLE7=Martin-Adagio
TTITLE8=Martin-Gigue: Allegro
TTITLE9=Ives-Moderato
TTITLE10=Ives-TSIAJ
TTITLE11=Ives-Moderato con moto
EXTD=
EXTT0=
EXTT1=
EXTT2=
EXTT3=
EXTT4=
EXTT5=
EXTT6=
EXTT7=
EXTT8=
EXTT9=
EXTT10=
EXTT11=
PLAYORDER=
